<?xml version="1.0" encoding="UTF-8" standalone="no"?>
<!-- Created with Inkscape (http://www.inkscape.org/) -->

<svg
   xmlns:dc="http://purl.org/dc/elements/1.1/"
   xmlns:cc="http://creativecommons.org/ns#"
   xmlns:rdf="http://www.w3.org/1999/02/22-rdf-syntax-ns#"
   xmlns:svg="http://www.w3.org/2000/svg"
   xmlns="http://www.w3.org/2000/svg"
   xmlns:xlink="http://www.w3.org/1999/xlink"
   xmlns:sodipodi="http://sodipodi.sourceforge.net/DTD/sodipodi-0.dtd"
   xmlns:inkscape="http://www.inkscape.org/namespaces/inkscape"
   width="210mm"
   height="297mm"
   viewBox="0 0 210 297"
   version="1.1"
   id="svg8"
   inkscape:version="0.92.1 unknown"
   sodipodi:docname="logo.svg">
  <defs
     id="defs2" />
  <sodipodi:namedview
     id="base"
     pagecolor="#ffffff"
     bordercolor="#666666"
     borderopacity="1.0"
     inkscape:pageopacity="0.0"
     inkscape:pageshadow="2"
     inkscape:zoom="0.5"
     inkscape:cx="57.546895"
     inkscape:cy="955.50919"
     inkscape:document-units="mm"
     inkscape:current-layer="g6838"
     showgrid="false"
     showguides="true"
     inkscape:guide-bbox="true"
     inkscape:window-width="1600"
     inkscape:window-height="1136"
     inkscape:window-x="0"
     inkscape:window-y="27"
     inkscape:window-maximized="1">
    <sodipodi:guide
       position="46.237627,244.81889"
       orientation="0,1"
       id="guide4485"
       inkscape:locked="false" />
    <sodipodi:guide
       position="65.38988,253.90551"
       orientation="1,0"
       id="guide4506"
       inkscape:locked="false" />
    <sodipodi:guide
       position="69.62371,231.72269"
       orientation="1,0"
       id="guide4527"
       inkscape:locked="false" />
    <sodipodi:guide
       position="78.309972,197.11128"
       orientation="0,1"
       id="guide4582"
       inkscape:locked="false" />
    <sodipodi:guide
       position="120.91458,207.69792"
       orientation="0,1"
       id="guide5625"
       inkscape:locked="false" />
  </sodipodi:namedview>
  <metadata
     id="metadata5">
    <rdf:RDF>
      <cc:Work
         rdf:about="">
        <dc:format>image/svg+xml</dc:format>
        <dc:type
           rdf:resource="http://purl.org/dc/dcmitype/StillImage" />
        <dc:title />
      </cc:Work>
    </rdf:RDF>
  </metadata>
  <g
     inkscape:label="Capa 1"
     inkscape:groupmode="layer"
     id="layer1">
    <g
       id="g5623">
      <g
         transform="rotate(-19.216697,72.919387,67.374967)"
         id="g4611">
        <path
           transform="matrix(0.24984088,0.08708545,-0.08708545,0.24984088,26.238953,-20.246721)"
           inkscape:connector-curvature="0"
           id="path4736"
           d=""
           style="opacity:1;fill:#808080;fill-opacity:1;stroke:none;stroke-width:0.07158562;stroke-miterlimit:4;stroke-dasharray:none;stroke-dashoffset:0;stroke-opacity:1" />
        <path
           transform="matrix(0.24984088,0.08708545,-0.08708545,0.24984088,26.238953,-20.246721)"
           inkscape:connector-curvature="0"
           id="path4738"
           d=""
           style="opacity:1;fill:#808080;fill-opacity:1;stroke:none;stroke-width:0.07158562;stroke-miterlimit:4;stroke-dasharray:none;stroke-dashoffset:0;stroke-opacity:1" />
        <path
           transform="matrix(0.24984088,0.08708545,-0.08708545,0.24984088,26.238953,-20.246721)"
           inkscape:connector-curvature="0"
           id="path4752"
           d=""
           style="opacity:1;fill:#808080;fill-opacity:1;stroke:none;stroke-width:0.00885827;stroke-miterlimit:4;stroke-dasharray:none;stroke-dashoffset:0;stroke-opacity:1" />
      </g>
    </g>
    <text
       xml:space="preserve"
       style="font-style:normal;font-variant:normal;font-weight:500;font-stretch:normal;font-size:47.3597374px;line-height:125%;font-family:Inconsolata;-inkscape-font-specification:'Inconsolata Medium';letter-spacing:0px;word-spacing:0px;fill:#000000;fill-opacity:1;stroke:none;stroke-width:0.59199673px;stroke-linecap:butt;stroke-linejoin:miter;stroke-opacity:1"
       x="108.20535"
       y="80.136787"
       id="text4615"
       transform="scale(0.8980885,1.113476)"><tspan
         sodipodi:role="line"
         id="tspan4613"
         x="108.20535"
         y="80.136787"
         style="fill:#2d2d2d;fill-opacity:1;stroke-width:0.59199673px">PPAXE</tspan></text>
    <g
       id="g6849"
       transform="translate(1.8731802)">
      <text
         id="text5500"
         y="98.033318"
         x="101.3354"
         style="font-style:normal;font-variant:normal;font-weight:500;font-stretch:normal;font-size:21.16666603px;line-height:125%;font-family:Inconsolata;-inkscape-font-specification:'Inconsolata Medium';letter-spacing:0px;word-spacing:0px;fill:#000000;fill-opacity:1;stroke:none;stroke-width:0.26458332px;stroke-linecap:butt;stroke-linejoin:miter;stroke-opacity:1"
         xml:space="preserve"><tspan
           id="tspan5514"
           style="font-style:normal;font-variant:normal;font-weight:normal;font-stretch:normal;font-size:12.69999981px;line-height:38.70003223%;font-family:Norwester;-inkscape-font-specification:Norwester;fill:#999999;stroke-width:0.26458332px"
           y="98.033318"
           x="101.3354"
           sodipodi:role="line"><tspan
   id="tspan5528"
   style="font-size:7.76111126px">Text mining tool to retrieve</tspan> </tspan><tspan
           id="tspan5518"
           style="font-style:normal;font-variant:normal;font-weight:normal;font-stretch:normal;font-size:14.11111069px;line-height:38.70003223%;font-family:Norwester;-inkscape-font-specification:Norwester;fill:#808080;stroke-width:0.26458332px"
           y="124.49165"
           x="101.3354"
           sodipodi:role="line" /></text>
      <text
         id="text5522"
         y="107.02915"
         x="100.14925"
         style="font-style:normal;font-variant:normal;font-weight:500;font-stretch:normal;font-size:21.16666603px;line-height:125%;font-family:Inconsolata;-inkscape-font-specification:'Inconsolata Medium';letter-spacing:0px;word-spacing:0px;fill:#ffcc00;fill-opacity:1;stroke:none;stroke-width:0.26458332px;stroke-linecap:butt;stroke-linejoin:miter;stroke-opacity:1"
         xml:space="preserve"><tspan
           style="font-style:normal;font-variant:normal;font-weight:normal;font-stretch:normal;font-size:7.76111126px;font-family:Norwester;-inkscape-font-specification:Norwester;fill:#ffcc00;fill-opacity:1;stroke-width:0.26458332px"
           y="107.02915"
           x="100.14925"
           id="tspan5520"
           sodipodi:role="line">protein-protein <tspan
   id="tspan5526"
   style="font-size:7.76111126px;fill:#b3b3b3;fill-opacity:1">interactions</tspan></tspan></text>
    </g>
    <g
       id="g6838"
       transform="rotate(53.006813,62.073203,41.743523)">
      <g
         id="g6949"
         transform="rotate(3.4335562,77.850238,114.20003)">
        <path
           transform="rotate(-19.216698,72.919382,67.374967)"
           inkscape:connector-curvature="0"
           id="path4710"
           d="M 46.671711,54.352122 47.065589,53.222119 59.9707,48.316405 c 7.097811,-2.698142 13.108221,-4.982341 13.356466,-5.076 l 0.451352,-0.170285 0.420711,4.326422 c 0.231391,2.379531 0.391974,4.339426 0.356849,4.355317 -0.03512,0.01589 -2.652442,0.05578 -5.816256,0.08863 -3.163814,0.03286 -5.887859,0.08298 -6.05343,0.111378 -0.165569,0.0284 -3.899589,0.829275 -8.297818,1.779721 -4.398228,0.950447 -8.022421,1.733137 -8.05376,1.739308 -0.03134,0.0062 0.120264,-0.497277 0.336897,-1.118779 z"
           style="opacity:1;fill:#808080;fill-opacity:1;stroke:none;stroke-width:0.15152289;stroke-miterlimit:4;stroke-dasharray:none;stroke-dashoffset:0;stroke-opacity:1" />
        <path
           transform="rotate(-19.216698,72.919382,67.374967)"
           inkscape:connector-curvature="0"
           id="path4712"
           d="m 85.891413,46.753547 c 0.276997,-1.971063 0.51242,-3.589528 0.523164,-3.596587 0.01549,-0.01018 17.879033,6.768001 29.246883,11.097517 1.16814,0.444894 3.23538,1.228567 4.59385,1.741495 2.91224,1.099597 3.8691,1.486182 3.84557,1.553679 -0.009,0.0272 -0.22943,-0.0041 -0.48877,-0.06954 -1.40886,-0.355546 -5.8713,-1.479891 -15.46502,-3.896533 l -10.700511,-2.695437 -5.85108,-0.266143 c -3.218093,-0.14638 -5.931324,-0.270319 -6.029401,-0.275421 l -0.178319,-0.0093 z"
           style="opacity:1;fill:#808080;fill-opacity:1;stroke:none;stroke-width:0.15152289;stroke-miterlimit:4;stroke-dasharray:none;stroke-dashoffset:0;stroke-opacity:1" />
        <path
           transform="rotate(-19.216698,72.919382,67.374967)"
           inkscape:connector-curvature="0"
           id="path4714"
           d="m 74.997677,54.599062 c -0.0154,-2.360439 -0.04567,-2.831036 -0.453124,-7.045478 -0.240142,-2.48385 -0.427725,-4.541611 -0.416853,-4.572804 0.01087,-0.03119 0.868012,-0.377979 1.904756,-0.770634 l 1.884986,-0.713921 2.093792,-0.0024 2.093796,-0.0024 1.962193,0.753771 c 1.079205,0.414572 1.973613,0.783412 1.987569,0.819642 0.01396,0.03623 -0.253151,2.037902 -0.593579,4.448162 l -0.61896,4.382286 0.0061,2.656996 0.0061,2.656993 -1.309199,-0.01409 c -0.720058,-0.0077 -1.346812,-0.0272 -1.392785,-0.04322 -0.04597,-0.01602 -0.231774,-0.01545 -0.41289,0.0013 -0.181117,0.01672 -1.768413,0.01797 -3.527327,0.0028 l -3.198027,-0.02764 z"
           style="opacity:1;fill:#333333;fill-opacity:1;stroke:none;stroke-width:0.15152289;stroke-miterlimit:4;stroke-dasharray:none;stroke-dashoffset:0;stroke-opacity:1" />
        <path
           transform="rotate(-19.216698,72.919382,67.374967)"
           inkscape:connector-curvature="0"
           id="path4720"
           d="m 34.751895,57.897279 c 0.06716,-0.02919 2.304807,-0.879585 4.972544,-1.889767 2.667737,-1.010184 5.410755,-2.051099 6.095594,-2.313146 l 1.245164,-0.476444 -0.395232,1.133888 -0.395233,1.133888 -5.776932,1.2482 c -3.177313,0.68651 -5.797427,1.241056 -5.822473,1.232325 -0.02505,-0.0087 0.0094,-0.03976 0.07657,-0.06894 z"
           style="opacity:1;fill:#808080;fill-opacity:1;stroke:none;stroke-width:0.15152289;stroke-miterlimit:4;stroke-dasharray:none;stroke-dashoffset:0;stroke-opacity:1" />
        <path
           transform="rotate(-19.216698,72.919382,67.374967)"
           inkscape:connector-curvature="0"
           id="path4726"
           d="m 44.665605,55.855905 c 0.0013,-0.0038 0.02181,-0.01403 0.04551,-0.02271 0.07077,-0.02591 1.174719,-0.261322 1.234889,-0.263333 0.03055,-10e-4 0.08258,-0.01199 0.115616,-0.02439 0.03303,-0.01239 0.09567,-0.03048 0.139192,-0.04019 l 0.07913,-0.01766 0.04534,-0.130069 c 0.02952,-0.0847 0.04749,-0.127411 0.05153,-0.122441 0.0034,0.0042 -7.44e-4,0.02786 -0.0092,0.05259 -0.02042,0.05939 -0.04225,0.165352 -0.03663,0.177027 0.0026,0.0053 0.507123,-0.09927 1.170266,-0.242467 3.504068,-0.756679 5.206165,-1.124461 5.23833,-1.131877 l 0.03606,-0.0083 -0.0062,0.01786 c -0.0053,0.01532 -0.581842,0.142246 -4.051553,0.892012 -2.224928,0.480782 -4.047423,0.873416 -4.049992,0.872521 -0.0026,-8.97e-4 -0.0036,-0.0048 -0.0023,-0.0086 z"
           style="opacity:1;fill:#808080;fill-opacity:1;stroke:none;stroke-width:0.01894036;stroke-miterlimit:4;stroke-dasharray:none;stroke-dashoffset:0;stroke-opacity:1" />
        <path
           transform="rotate(-19.216698,72.919382,67.374967)"
           inkscape:connector-curvature="0"
           id="path4728"
           d="m 46.377806,55.207238 c 0.0013,-0.0035 0.0076,-0.01048 0.01412,-0.0155 0.01015,-0.0079 0.01115,-0.0073 0.0072,0.0042 -0.0025,0.0074 -0.0088,0.01435 -0.01412,0.0155 -0.0053,0.0012 -0.0085,-7.35e-4 -0.0072,-0.0042 z"
           style="opacity:1;fill:#808080;fill-opacity:1;stroke:none;stroke-width:0.01894036;stroke-miterlimit:4;stroke-dasharray:none;stroke-dashoffset:0;stroke-opacity:1" />
        <path
           transform="rotate(-19.216698,72.919382,67.374967)"
           inkscape:connector-curvature="0"
           id="path4730"
           d="m 42.418817,55.62797 0.25934,-0.744024 0.06357,-0.03115 c 0.03496,-0.01713 0.07762,-0.04416 0.0948,-0.06006 0.03152,-0.02918 0.04154,-0.02992 0.07433,-0.0054 0.01894,0.01414 0.1971,-0.05221 0.357371,-0.133122 0.06587,-0.03325 0.122292,-0.05734 0.125386,-0.05353 0.0031,0.0039 0.0246,0.0021 0.04778,-0.0038 0.02318,-0.0059 0.393503,-0.14413 0.822923,-0.307162 0.816619,-0.310038 1.063804,-0.414498 1.105205,-0.46706 0.0203,-0.02577 0.0237,-0.02693 0.04762,-0.01609 0.02031,0.0093 0.04191,0.0077 0.102797,-0.0073 0.09272,-0.02288 0.110954,-0.02952 0.722145,-0.263188 0.531493,-0.203196 0.627265,-0.244718 0.670096,-0.290521 0.0323,-0.03455 0.04651,-0.03795 0.06676,-0.01595 0.01181,0.01283 0.01888,0.01384 0.04345,0.0062 0.01615,-0.005 0.03023,-0.0073 0.03129,-0.0051 0.0033,0.0069 0.135663,-0.05082 0.291563,-0.127171 0.0822,-0.04026 0.163991,-0.07494 0.18176,-0.07708 0.04954,-0.006 0.423104,-0.142227 1.41688,-0.516857 l 0.441146,-0.166301 1.781965,0.621128 1.781965,0.621129 -0.08778,0.245416 -0.08779,0.245417 -2.080434,0.449391 c -1.144236,0.247164 -2.536617,0.54774 -3.094183,0.667946 -0.557564,0.120207 -1.018494,0.220745 -1.024289,0.223415 -0.01956,0.009 0.03238,-0.0012 0.349884,-0.06844 0.471499,-0.09993 0.405693,-0.08577 2.176766,-0.468465 0.907522,-0.196099 2.086884,-0.450775 2.620802,-0.565948 0.533917,-0.115174 0.986969,-0.213335 1.006782,-0.218136 0.03859,-0.0094 0.04968,-0.0092 0.03769,5.29e-4 -0.0245,0.01989 -1.060679,0.246786 -5.625948,1.231943 -0.407686,0.08798 -0.82185,0.177403 -0.920372,0.198726 -0.09852,0.02132 -0.181902,0.03534 -0.185299,0.03116 -0.0034,-0.0042 -0.01675,-0.005 -0.02971,-0.0017 -0.01295,0.0032 -0.04344,0.0062 -0.06777,0.0065 -0.03801,5.65e-4 -0.995592,0.201836 -1.161761,0.244179 -0.07015,0.01787 -0.114398,0.03638 -0.119076,0.0498 -0.005,0.01447 -0.04393,0.02333 -0.06701,0.0153 -0.02744,-0.0096 -0.106355,6e-5 -0.263517,0.03211 -0.127893,0.02608 -2.099691,0.450866 -2.14453,0.461999 l -0.02178,0.0054 z m 3.755842,-0.109517 0.102365,-0.02623 0.03424,-0.09421 c 0.04559,-0.125166 0.06611,-0.153646 0.03808,-0.05306 -0.01174,0.04212 -0.02059,0.0868 -0.01967,0.09928 0.0016,0.02206 0.0018,0.02201 0.0059,-0.0024 0.009,-0.05251 0.05427,-0.222888 0.07533,-0.283317 0.01759,-0.05047 0.01884,-0.05888 0.0065,-0.04198 -0.0086,0.01161 -0.04523,0.09872 -0.08148,0.193577 l -0.06594,0.17246 -0.07534,0.01619 c -0.04144,0.0089 -0.0952,0.02504 -0.119478,0.03585 -0.04845,0.02159 -0.04789,0.0215 0.0994,-0.01624 z"
           style="opacity:1;fill:#808080;fill-opacity:1;stroke:none;stroke-width:0.01894036;stroke-miterlimit:4;stroke-dasharray:none;stroke-dashoffset:0;stroke-opacity:1" />
        <path
           transform="rotate(-19.216698,72.919382,67.374967)"
           inkscape:connector-curvature="0"
           id="path4732"
           d="m 42.418711,55.628275 0.258925,-0.742835 0.06793,-0.03529 c 0.03736,-0.01941 0.07892,-0.04644 0.09237,-0.06008 0.02842,-0.02882 0.04319,-0.03133 0.06228,-0.01058 0.01106,0.01201 0.01888,0.0137 0.0397,0.0086 0.05566,-0.0136 0.215093,-0.07905 0.32793,-0.134639 0.06511,-0.03207 0.124843,-0.05607 0.132733,-0.05331 0.02241,0.0078 -0.0096,0.01927 0.763291,-0.273759 0.753932,-0.285855 0.919925,-0.351472 1.063471,-0.4204 0.09237,-0.04435 0.13391,-0.06904 0.14559,-0.08652 0.01507,-0.02257 0.01884,-0.02366 0.04847,-0.01416 0.06009,0.01927 0.140094,-0.0079 1.022088,-0.347494 0.306945,-0.118172 0.439258,-0.179037 0.474421,-0.218238 0.02575,-0.02871 0.04149,-0.03131 0.06104,-0.01007 0.01177,0.01279 0.01879,0.01386 0.04227,0.0066 0.0155,-0.0048 0.03046,-0.008 0.03325,-0.007 0.01042,0.0036 0.197764,-0.07824 0.301674,-0.13182 0.06059,-0.03124 0.135292,-0.0621 0.17104,-0.07064 0.07681,-0.01836 0.428044,-0.146294 1.243568,-0.452967 l 0.61354,-0.23072 1.78223,0.62122 1.782228,0.62122 -0.0863,0.24759 c -0.06892,0.197711 -0.08858,0.247697 -0.09809,0.247959 -0.0065,2.54e-4 -0.370923,0.07797 -0.809856,0.172824 -0.825137,0.178311 -2.296603,0.49608 -3.471435,0.749673 -0.370869,0.08005 -0.895974,0.19341 -1.166897,0.251902 -0.270922,0.05849 -0.497428,0.108816 -0.503345,0.111836 -0.0072,0.0037 -0.0077,0.005 -0.0014,0.004 0.04126,-0.0064 0.865255,-0.18384 4.095699,-0.881927 1.022202,-0.220895 1.860366,-0.400992 1.862589,-0.400217 0.03585,0.0125 -0.296509,0.08672 -3.252577,0.726355 -3.009357,0.651169 -3.463298,0.748337 -3.476097,0.744066 -0.0073,-0.0024 -0.0138,-0.001 -0.01439,0.0033 -6.27e-4,0.0042 -0.0066,0.0077 -0.01344,0.0078 -0.0075,1.99e-4 -0.009,-0.0026 -0.0039,-0.0067 0.02075,-0.01684 -0.165534,0.01263 -0.41099,0.065 -0.888474,0.189586 -0.932145,0.200131 -0.941625,0.227328 -0.0054,0.01539 -0.0437,0.02448 -0.06783,0.01607 -0.04488,-0.01564 -0.05532,-0.01357 -1.467795,0.291353 -0.520801,0.11243 -0.950132,0.205102 -0.954072,0.20594 -0.0039,8.66e-4 0.109346,-0.332756 0.251756,-0.741318 z m 3.764877,-0.113037 0.09374,-0.02291 0.03536,-0.09824 c 0.03728,-0.103732 0.07292,-0.165545 0.04456,-0.07734 -0.01527,0.04782 -0.03295,0.136809 -0.02125,0.107581 0.0035,-0.0085 0.01566,-0.05402 0.02719,-0.101087 0.01153,-0.04706 0.03067,-0.114023 0.04254,-0.148804 0.04266,-0.124815 -0.0072,-0.02578 -0.07264,0.144424 l -0.06353,0.165293 -0.07766,0.01742 c -0.04271,0.0096 -0.09397,0.02427 -0.113921,0.03264 -0.03914,0.01643 -0.03929,0.01646 0.105631,-0.01896 z m 0.566473,-0.132955 c 7.84e-4,-0.0022 -0.007,-0.0026 -0.01733,-9.97e-4 -0.01029,0.0016 -0.01933,0.0047 -0.02008,0.0069 -7.84e-4,0.0022 0.007,0.0026 0.01733,9.97e-4 0.01029,-0.0016 0.01933,-0.0047 0.02008,-0.0069 z m 0.04768,-0.0099 c 7.84e-4,-0.0022 -0.007,-0.0026 -0.01733,-9.98e-4 -0.01029,0.0016 -0.01933,0.0047 -0.02009,0.0069 -7.83e-4,0.0022 0.007,0.0026 0.01733,9.98e-4 0.01029,-0.0016 0.01933,-0.0047 0.02008,-0.0069 z"
           style="opacity:1;fill:#808080;fill-opacity:1;stroke:none;stroke-width:0.01894036;stroke-miterlimit:4;stroke-dasharray:none;stroke-dashoffset:0;stroke-opacity:1" />
        <path
           transform="rotate(-19.216698,72.919382,67.374967)"
           inkscape:connector-curvature="0"
           id="path4734"
           d="m 46.371661,55.224474 c 0.0023,-0.0065 0.0077,-0.0106 0.01202,-0.0091 0.0043,0.0015 0.006,0.0081 0.0038,0.01459 -0.0023,0.0065 -0.0077,0.01058 -0.01201,0.0091 -0.0043,-0.0015 -0.006,-0.0081 -0.0038,-0.01457 z"
           style="opacity:1;fill:#808080;fill-opacity:1;stroke:none;stroke-width:0.01894036;stroke-miterlimit:4;stroke-dasharray:none;stroke-dashoffset:0;stroke-opacity:1" />
        <path
           transform="rotate(-19.216698,72.919382,67.374967)"
           inkscape:connector-curvature="0"
           id="path4740"
           d="m 46.090162,55.532209 c 0.01965,-0.0097 0.03531,-0.01389 0.115098,-0.03111 l 0.06954,-0.01501 0.02394,-0.06867 c 0.03154,-0.09048 0.06101,-0.167809 0.06998,-0.183074 l 0.0014,-0.0025 9.65e-4,0.0029 c 8.02e-4,0.0025 6.86e-4,0.0037 -0.0016,0.0079 -0.0068,0.01218 -0.01619,0.03639 -0.04586,0.119035 -0.01752,0.04867 -0.03487,0.09683 -0.03844,0.107063 l -0.0066,0.01859 -0.04004,0.0089 c -0.06288,0.01395 -0.09819,0.02312 -0.141113,0.03668 -0.01049,0.0033 -0.01955,0.006 -0.02017,0.006 -5.68e-4,2.1e-5 0.0052,-0.0031 0.01277,-0.0068 z"
           style="opacity:1;fill:#808080;fill-opacity:1;stroke:none;stroke-width:0.00234375;stroke-miterlimit:4;stroke-dasharray:none;stroke-dashoffset:0;stroke-opacity:1" />
        <path
           transform="rotate(-19.216698,72.919382,67.374967)"
           inkscape:connector-curvature="0"
           id="path4742"
           d="m 45.767855,55.615346 0.0048,-0.01367 0.03497,-0.0069 c 0.08265,-0.01636 0.123412,-0.02338 0.144292,-0.02484 0.01654,-0.0012 0.05764,-0.0079 0.05695,-0.0093 -1.47e-4,-3.1e-4 -0.0055,3.35e-4 -0.01185,0.0016 -0.01925,0.0035 -0.0369,0.005 -0.0599,0.0047 -0.01611,-1.53e-4 -0.07436,0.009 -0.138421,0.02167 -0.01222,0.0024 -0.02237,0.0044 -0.02257,0.0043 -1.95e-4,-6.8e-5 0.0733,-0.21111 0.163206,-0.469028 l 0.163455,-0.468939 0.54165,0.188799 0.54165,0.1888 -0.04826,0.137666 -0.04826,0.137663 -0.137237,0.02961 c -0.11936,0.02576 -0.154361,0.03372 -0.142117,0.03234 0.0023,-3.02e-4 0.155087,-0.03237 0.24721,-0.05197 0.01677,-0.0036 0.0307,-0.0064 0.03094,-0.0063 2.38e-4,8.3e-5 -0.0022,0.008 -0.0056,0.01764 -0.005,0.01434 -0.0064,0.01748 -0.0078,0.01749 -8.37e-4,-1.1e-5 -0.05023,0.01055 -0.109663,0.02337 -0.05944,0.01283 -0.123504,0.02665 -0.142378,0.03071 -0.01887,0.0041 -0.06467,0.01394 -0.101782,0.02196 -0.03711,0.008 -0.07465,0.01611 -0.08343,0.01797 -0.0088,0.0019 -0.04126,0.0089 -0.07219,0.01555 -0.03092,0.0067 -0.08791,0.01899 -0.12664,0.02733 -0.03873,0.0084 -0.09811,0.02115 -0.131957,0.02845 -0.03385,0.0073 -0.0919,0.01983 -0.129,0.02782 -0.0371,0.008 -0.09382,0.02024 -0.126046,0.02719 -0.09539,0.0206 -0.280753,0.06051 -0.284889,0.06135 l -0.0039,8.93e-4 z m 0.299675,-0.07215 c 0.0031,-8.7e-4 0.01123,-0.0033 0.01803,-0.0056 0.0407,-0.01344 0.08971,-0.02636 0.152674,-0.04028 l 0.03992,-0.0088 0.0039,-0.0097 c 0.0021,-0.0054 0.01782,-0.04872 0.03472,-0.09641 0.01684,-0.04771 0.02863,-0.08152 0.0262,-0.07514 -0.0024,0.0064 -0.01804,0.04933 -0.03467,0.09546 -0.02918,0.08131 -0.03011,0.08396 -0.03251,0.08468 -0.0029,9.65e-4 -0.0046,6.32e-4 -0.0027,-6.64e-4 7.61e-4,-5.76e-4 0.01185,-0.02997 0.02931,-0.07926 0.03583,-0.100387 0.05873,-0.159817 0.06592,-0.171845 0.0019,-0.0031 0.0019,-0.0031 0.0024,-5.52e-4 3.9e-4,0.0021 -3.85e-4,0.0043 -0.0034,0.0103 -0.002,0.0042 -0.0069,0.01565 -0.01057,0.02549 -0.0036,0.0099 -0.0054,0.01493 -0.0039,0.01122 0.0058,-0.01433 0.01549,-0.03641 0.01768,-0.04018 0.002,-0.0034 0.0022,-0.0046 0.0011,-0.0088 l -0.0012,-0.0048 -0.0043,0.0082 c -0.01024,0.0203 -0.04228,0.104667 -0.07168,0.188848 l -0.02097,0.06 -0.06798,0.01461 c -0.03739,0.008 -0.07466,0.01647 -0.08282,0.01874 -0.0088,0.0025 -0.02143,0.0071 -0.03114,0.01159 -0.009,0.0041 -0.01966,0.0089 -0.02376,0.0106 -0.0085,0.0036 -0.0087,0.0042 -5.52e-4,0.002 z m 0.272957,-0.140124 c 0.0084,-0.03785 0.02264,-0.0927 0.03767,-0.144889 0.0034,-0.01208 0.0063,-0.02207 0.0061,-0.02236 -8.2e-5,-2.48e-4 -0.0016,5.64e-4 -0.0035,0.0016 -0.0028,0.0016 -0.0034,0.0025 -0.0033,0.0046 3.21e-4,0.0071 -0.0035,0.02276 -0.0114,0.04821 -0.0095,0.03049 -0.01642,0.05626 -0.02273,0.08402 -0.0046,0.01951 -0.01046,0.05076 -0.01048,0.05435 1.03e-4,0.0053 0.0031,-0.0048 0.0075,-0.02544 z m 0.392507,-0.01703 c 0.0093,-0.0019 0.01672,-0.0038 0.01654,-0.0042 -3.25e-4,-6.74e-4 -0.01901,0.0031 -0.03237,0.0064 -0.01106,0.0027 -4.18e-4,0.0013 0.01583,-0.0022 z m 0.04567,-0.0094 c 0.01887,-0.0041 0.0198,-0.0044 0.01944,-0.0051 -4.88e-4,-10e-4 -0.03695,0.0067 -0.03732,0.0078 -3.53e-4,9.98e-4 0.0048,2.57e-4 0.01788,-0.0027 z m -0.387865,-0.162655 c 0.0016,-0.0063 0.0019,-0.0079 6.86e-4,-0.0068 -0.0029,0.0028 -0.007,0.0044 -0.01,0.0041 -0.0027,-3.71e-4 -0.0031,2.4e-5 -0.0042,0.0031 l -0.0012,0.0035 0.0033,-0.0014 c 0.0037,-0.0016 0.0074,6e-5 0.0082,0.004 4.01e-4,0.0013 6.39e-4,0.0022 9.76e-4,0.002 1.96e-4,-9.4e-5 0.0013,-0.0039 0.0027,-0.0084 z m 0.01779,-0.05988 c 0.0054,-0.018 0.0096,-0.03308 0.0094,-0.03343 -1.62e-4,-3.37e-4 -4.7e-4,-2.59e-4 -6.73e-4,3.25e-4 -1.77e-4,4.99e-4 -0.0017,0.0033 -0.0034,0.0064 -0.0016,0.003 -0.0068,0.01454 -0.01118,0.02565 -0.0044,0.01109 -0.01038,0.02577 -0.01306,0.03266 l -0.0049,0.01252 0.007,-0.0056 0.007,-0.0056 z"
           style="opacity:1;fill:#808080;fill-opacity:1;stroke:none;stroke-width:0.00234375;stroke-miterlimit:4;stroke-dasharray:none;stroke-dashoffset:0;stroke-opacity:1" />
        <path
           transform="rotate(-19.216698,72.919382,67.374967)"
           inkscape:connector-curvature="0"
           id="path4744"
           d="m 46.376026,55.25844 c 5.17e-4,-0.0015 0.0014,-0.0064 0.0018,-0.01078 8.79e-4,-0.0073 0.0011,-0.0079 0.003,-0.0089 0.002,-9.76e-4 0.002,-1.4e-4 -0.0011,0.01038 -0.0016,0.0063 -0.0035,0.01162 -0.004,0.01179 -3.37e-4,1.63e-4 -2.39e-4,-9.24e-4 2.84e-4,-0.0024 z"
           style="opacity:1;fill:#808080;fill-opacity:1;stroke:none;stroke-width:0.00234375;stroke-miterlimit:4;stroke-dasharray:none;stroke-dashoffset:0;stroke-opacity:1" />
        <path
           transform="rotate(-19.216698,72.919382,67.374967)"
           inkscape:connector-curvature="0"
           id="path4746"
           d="m 45.768158,55.615177 0.0051,-0.01375 0.02703,-0.0054 c 0.07324,-0.01453 0.131857,-0.0249 0.145338,-0.0257 0.01646,-9.88e-4 0.06293,-0.0082 0.0635,-0.0098 8.7e-5,-2.5e-4 -0.0025,-3.4e-5 -0.006,7.13e-4 -0.02482,0.0044 -0.04194,0.006 -0.06285,0.0058 -0.01841,-1.68e-4 -0.07395,0.0083 -0.141084,0.0215 -0.01252,0.0025 -0.02292,0.0044 -0.02312,0.0044 -2e-4,-6.9e-5 0.0733,-0.21111 0.163206,-0.469028 l 0.163455,-0.468939 0.54165,0.188799 0.54165,0.1888 -0.04828,0.137716 -0.04828,0.137713 -0.09172,0.01979 c -0.144503,0.03118 -0.184163,0.03991 -0.187435,0.04125 l -0.0029,0.0012 0.0041,-8.06e-4 c 0.0044,-7.01e-4 0.173677,-0.03636 0.237137,-0.04982 0.02163,-0.0046 0.03955,-0.0083 0.03979,-0.0082 2.45e-4,8.5e-5 -0.0022,0.008 -0.0055,0.01749 l -0.0061,0.0173 -0.03394,0.0072 c -0.01867,0.004 -0.06404,0.01373 -0.100819,0.02166 -0.03678,0.0079 -0.08258,0.01781 -0.10178,0.02195 -0.0192,0.0041 -0.04077,0.0088 -0.04794,0.01036 -0.0072,0.0016 -0.09185,0.01983 -0.188176,0.04059 -0.206957,0.0446 -0.348136,0.07504 -0.424855,0.09158 -0.238303,0.0514 -0.411153,0.0886 -0.413331,0.08894 l -0.0027,4.65e-4 z m 0.317687,-0.07778 c 0.05111,-0.01617 0.08404,-0.02487 0.149624,-0.03951 l 0.04293,-0.0096 0.002,-0.0064 0.002,-0.0064 -0.0023,0.0057 c -0.0016,0.0039 -0.0029,0.0059 -0.0045,0.0063 -0.0025,8.02e-4 -0.0041,5.38e-4 -0.0027,-6.65e-4 4.24e-4,-4.12e-4 5.98e-4,-9.12e-4 3.06e-4,-10e-4 -7.5e-4,-2.61e-4 -0.120701,0.02562 -0.13708,0.02961 -0.01944,0.0047 -0.02974,0.0082 -0.04554,0.01557 -0.0083,0.0038 -0.01803,0.0082 -0.02171,0.0098 -0.0037,0.0015 -0.0063,0.003 -0.0058,0.0031 4.99e-4,1.75e-4 0.01073,-0.0028 0.02279,-0.0066 z m 0.255735,-0.2367 c 0.01374,-0.0362 0.02335,-0.05896 0.02692,-0.06501 0.0019,-0.0031 0.0019,-0.0032 0.0024,-5.52e-4 3.9e-4,0.0021 -4.46e-4,0.0045 -0.0036,0.01081 -0.0021,0.0045 -0.0048,0.01055 -0.0058,0.01349 -0.0019,0.0059 -0.0016,0.0053 0.0059,-0.01116 0.0048,-0.01067 0.005,-0.01102 0.004,-0.01555 l -9.07e-4,-0.0046 -0.0045,0.0088 c -0.01052,0.0211 -0.04402,0.10942 -0.06946,0.183193 l -0.01686,0.04885 0.02388,-0.0661 c 0.01322,-0.03633 0.03012,-0.0824 0.03764,-0.102352 z m -0.03055,0.09634 c 0.0046,-0.0136 6.21e-4,-0.0026 -0.0088,0.02455 -0.0094,0.02711 -0.01319,0.03824 -0.0083,0.02472 0.0049,-0.01349 0.01261,-0.03568 0.01718,-0.04928 z m 0.02913,0.007 c 0.0084,-0.03766 0.02324,-0.09488 0.03753,-0.144393 0.0035,-0.01233 0.0065,-0.0226 0.0063,-0.02291 -1.05e-4,-2.95e-4 -0.0014,6.4e-5 -0.0031,8.78e-4 -0.0028,0.0016 -0.0028,0.0016 -0.0039,0.0094 -0.0012,0.0097 -0.0052,0.02518 -0.01556,0.05904 -0.0083,0.02693 -0.0134,0.04681 -0.01983,0.07609 -0.004,0.01862 -0.0084,0.04134 -0.0087,0.04568 l -1.22e-4,0.0028 0.0011,-0.0025 c 7.15e-4,-0.0014 0.0034,-0.0122 0.0062,-0.02411 z m -0.01476,-0.04522 c 2.97e-4,-0.0016 -3.26e-4,-6.74e-4 -0.0013,0.0021 -9.37e-4,0.0027 -0.0012,0.004 -4.41e-4,0.0029 6.66e-4,-0.0012 0.0014,-0.0033 0.0017,-0.0049 z m 0.01041,-0.02977 c 0.0016,-0.005 9.8e-5,-0.0011 -0.0034,0.0089 -0.0035,0.0099 -0.0047,0.01404 -0.0029,0.0091 0.0019,-0.0049 0.0047,-0.01303 0.0063,-0.01806 z m 0.02208,-0.06013 c 5.76e-4,-0.0023 -2.39e-4,-9.24e-4 -0.0018,0.0034 -0.0015,0.0043 -0.002,0.0062 -0.0012,0.0043 9.07e-4,-0.0019 0.0021,-0.0054 0.0027,-0.0078 z m 0.373348,0.117359 c 0.0089,-0.0018 0.01665,-0.0037 0.01724,-0.0042 4.24e-4,-4.12e-4 5.11e-4,-6.62e-4 -3.8e-5,-5.73e-4 -0.01104,0.0022 -0.03484,0.0076 -0.03496,0.008 -1.74e-4,4.99e-4 -0.0014,9e-4 0.01774,-0.0031 z m 0.04843,-0.0101 c 0.0096,-0.002 0.01754,-0.004 0.0177,-0.0045 1.74e-4,-5e-4 1.2e-5,-8.36e-4 -5.75e-4,-7.61e-4 -0.01135,0.0022 -0.03481,0.0076 -0.03559,0.0083 -0.0012,9.88e-4 -0.0027,0.0013 0.01846,-0.0031 z m -0.396164,-0.160504 c 7.5e-4,2.61e-4 0.0024,0.002 0.0035,0.0037 l 0.0019,0.0032 5.92e-4,-0.0041 c 4.47e-4,-0.0021 0.0012,-0.0059 0.002,-0.008 l 0.0013,-0.0039 -0.0037,0.0024 c -0.0021,0.0012 -0.0054,0.0025 -0.0075,0.0026 -0.0032,3e-4 -0.0039,6.16e-4 -0.0048,0.0033 l -0.0011,0.0031 0.0029,-0.0012 c 0.0017,-8.14e-4 0.0036,-9.71e-4 0.0045,-6.84e-4 z m 0.01227,-0.02637 c 0.003,-0.0021 0.003,-0.0023 0.01225,-0.03354 0.0052,-0.01725 0.0095,-0.03212 0.0098,-0.03295 0.0011,-0.0032 -8.25e-4,-8.48e-4 -0.0041,0.0052 -0.0018,0.0034 -0.007,0.01517 -0.01134,0.02611 -0.0044,0.01094 -0.01021,0.02528 -0.0128,0.0319 l -0.0048,0.01202 0.004,-0.0034 c 0.002,-0.0018 0.0053,-0.0043 0.0069,-0.0055 z"
           style="opacity:1;fill:#808080;fill-opacity:1;stroke:none;stroke-width:0.00234375;stroke-miterlimit:4;stroke-dasharray:none;stroke-dashoffset:0;stroke-opacity:1" />
        <path
           transform="rotate(-19.216698,72.919382,67.374967)"
           inkscape:connector-curvature="0"
           id="path4748"
           d="m 46.336338,55.411914 c 0.009,-0.04535 0.0223,-0.09782 0.03053,-0.120458 0.0026,-0.0072 0.0022,-0.0054 -0.0017,0.0098 -0.009,0.0331 -0.01782,0.06825 -0.02323,0.09188 -0.003,0.0127 -0.0056,0.02327 -0.0059,0.02341 -3.16e-4,1.53e-4 -1.4e-4,-0.002 4.81e-4,-0.0046 z"
           style="opacity:1;fill:#808080;fill-opacity:1;stroke:none;stroke-width:0.00234375;stroke-miterlimit:4;stroke-dasharray:none;stroke-dashoffset:0;stroke-opacity:1" />
        <path
           transform="rotate(-19.216698,72.919382,67.374967)"
           inkscape:connector-curvature="0"
           id="path4750"
           d="m 46.38812,55.192424 c 0.0041,-0.01153 0.02527,-0.06276 0.02647,-0.06422 0.001,-0.0013 -0.0018,0.0092 -0.0076,0.02818 l -0.0091,0.03016 -0.0048,0.0039 c -0.0053,0.0043 -0.0058,0.0045 -0.0049,0.002 z"
           style="opacity:1;fill:#808080;fill-opacity:1;stroke:none;stroke-width:0.00234375;stroke-miterlimit:4;stroke-dasharray:none;stroke-dashoffset:0;stroke-opacity:1" />
        <path
           transform="rotate(-19.216698,72.919382,67.374967)"
           inkscape:connector-curvature="0"
           id="path4754"
           d="m 46.386577,55.217205 c -0.0015,-0.0022 -0.0025,-0.0025 -0.0066,-0.0022 -0.0014,6.4e-5 -0.0018,-3.6e-4 -0.0015,-0.0014 2.61e-4,-7.49e-4 0.0019,-0.0016 0.0039,-0.0016 0.002,-1.4e-4 0.0046,-9.25e-4 0.0061,-0.0019 l 0.0025,-0.0016 -7.75e-4,0.0046 c -0.0012,0.0059 -0.0018,0.0068 -0.0037,0.0042 z"
           style="opacity:1;fill:#808080;fill-opacity:1;stroke:none;stroke-width:0.00234375;stroke-miterlimit:4;stroke-dasharray:none;stroke-dashoffset:0;stroke-opacity:1" />
        <path
           transform="rotate(-19.216698,72.919382,67.374967)"
           inkscape:connector-curvature="0"
           id="path4756"
           d="m 46.388448,55.216798 c 4.8e-4,-0.0012 6.85e-4,-0.0012 6.74e-4,-3.26e-4 -1.2e-5,8.37e-4 -2.76e-4,0.0016 -6.87e-4,0.0017 -3.37e-4,1.63e-4 -4.13e-4,-4.24e-4 -6.5e-5,-0.0014 z"
           style="opacity:1;fill:#808080;fill-opacity:1;stroke:none;stroke-width:0.00234375;stroke-miterlimit:4;stroke-dasharray:none;stroke-dashoffset:0;stroke-opacity:1" />
        <use
           transform="rotate(-19.216698,72.752683,67.250003)"
           height="100%"
           width="100%"
           y="0"
           x="0"
           xlink:href="#path4756"
           inkscape:spray-origin="#path4756"
           id="use4758" />
        <use
           transform="rotate(-19.216698,72.698612,67.43042)"
           height="100%"
           width="100%"
           y="0"
           x="0"
           xlink:href="#path4756"
           inkscape:spray-origin="#path4756"
           id="use4760" />
        <use
           transform="rotate(-19.216698,72.707777,67.379036)"
           height="100%"
           width="100%"
           y="0"
           x="0"
           xlink:href="#path4756"
           inkscape:spray-origin="#path4756"
           id="use4762" />
        <use
           transform="rotate(-19.216698,72.691662,67.441703)"
           height="100%"
           width="100%"
           y="0"
           x="0"
           xlink:href="#path4756"
           inkscape:spray-origin="#path4756"
           id="use4764" />
        <use
           transform="rotate(-19.216698,72.726721,67.433709)"
           height="100%"
           width="100%"
           y="0"
           x="0"
           xlink:href="#path4756"
           inkscape:spray-origin="#path4756"
           id="use4766" />
        <use
           transform="rotate(-19.216698,72.613505,67.369559)"
           height="100%"
           width="100%"
           y="0"
           x="0"
           xlink:href="#path4756"
           inkscape:spray-origin="#path4756"
           id="use4768" />
        <use
           transform="rotate(-19.216698,72.756713,67.416092)"
           height="100%"
           width="100%"
           y="0"
           x="0"
           xlink:href="#path4756"
           inkscape:spray-origin="#path4756"
           id="use4770" />
        <use
           transform="rotate(-19.216698,72.617231,67.417783)"
           height="100%"
           width="100%"
           y="0"
           x="0"
           xlink:href="#path4756"
           inkscape:spray-origin="#path4756"
           id="use4772" />
        <use
           transform="rotate(-19.216698,72.76124,67.44149)"
           height="100%"
           width="100%"
           y="0"
           x="0"
           xlink:href="#path4756"
           inkscape:spray-origin="#path4756"
           id="use4774" />
        <use
           transform="rotate(-19.216698,72.651288,67.261949)"
           height="100%"
           width="100%"
           y="0"
           x="0"
           xlink:href="#path4756"
           inkscape:spray-origin="#path4756"
           id="use4776" />
        <use
           transform="rotate(-19.216698,72.697231,67.40306)"
           height="100%"
           width="100%"
           y="0"
           x="0"
           xlink:href="#path4756"
           inkscape:spray-origin="#path4756"
           id="use4778" />
        <use
           transform="rotate(-19.216698,72.620524,67.278143)"
           height="100%"
           width="100%"
           y="0"
           x="0"
           xlink:href="#path4756"
           inkscape:spray-origin="#path4756"
           id="use4780" />
        <use
           transform="rotate(-19.216698,72.678747,67.254455)"
           height="100%"
           width="100%"
           y="0"
           x="0"
           xlink:href="#path4756"
           inkscape:spray-origin="#path4756"
           id="use4782" />
        <use
           transform="rotate(-19.216698,72.627772,67.260495)"
           height="100%"
           width="100%"
           y="0"
           x="0"
           xlink:href="#path4756"
           inkscape:spray-origin="#path4756"
           id="use4784" />
        <use
           transform="rotate(-19.216698,72.635843,67.26515)"
           height="100%"
           width="100%"
           y="0"
           x="0"
           xlink:href="#path4756"
           inkscape:spray-origin="#path4756"
           id="use4786" />
        <use
           transform="rotate(-19.216698,72.778132,67.30581)"
           height="100%"
           width="100%"
           y="0"
           x="0"
           xlink:href="#path4756"
           inkscape:spray-origin="#path4756"
           id="use4788" />
        <use
           transform="rotate(-19.216698,72.80739,67.338399)"
           height="100%"
           width="100%"
           y="0"
           x="0"
           xlink:href="#path4756"
           inkscape:spray-origin="#path4756"
           id="use4790" />
        <use
           transform="rotate(-19.216698,72.772199,67.385298)"
           height="100%"
           width="100%"
           y="0"
           x="0"
           xlink:href="#path4756"
           inkscape:spray-origin="#path4756"
           id="use4792" />
        <use
           transform="rotate(-19.216698,72.78175,67.342037)"
           height="100%"
           width="100%"
           y="0"
           x="0"
           xlink:href="#path4756"
           inkscape:spray-origin="#path4756"
           id="use4794" />
        <use
           transform="rotate(-19.216698,72.737031,67.260934)"
           height="100%"
           width="100%"
           y="0"
           x="0"
           xlink:href="#path4756"
           inkscape:spray-origin="#path4756"
           id="use4796" />
        <use
           transform="rotate(-19.216698,72.694191,67.232268)"
           height="100%"
           width="100%"
           y="0"
           x="0"
           xlink:href="#path4756"
           inkscape:spray-origin="#path4756"
           id="use4798" />
        <use
           transform="rotate(-19.216698,72.759469,67.282145)"
           height="100%"
           width="100%"
           y="0"
           x="0"
           xlink:href="#path4756"
           inkscape:spray-origin="#path4756"
           id="use4800" />
        <use
           transform="rotate(-19.216698,72.720104,67.370088)"
           height="100%"
           width="100%"
           y="0"
           x="0"
           xlink:href="#path4756"
           inkscape:spray-origin="#path4756"
           id="use4802" />
        <use
           transform="rotate(-19.216698,72.686348,67.279119)"
           height="100%"
           width="100%"
           y="0"
           x="0"
           xlink:href="#path4756"
           inkscape:spray-origin="#path4756"
           id="use4804" />
        <use
           transform="rotate(-19.216698,72.732317,67.305159)"
           height="100%"
           width="100%"
           y="0"
           x="0"
           xlink:href="#path4756"
           inkscape:spray-origin="#path4756"
           id="use4806" />
        <use
           transform="rotate(-19.216698,72.755975,67.234075)"
           height="100%"
           width="100%"
           y="0"
           x="0"
           xlink:href="#path4756"
           inkscape:spray-origin="#path4756"
           id="use4808" />
        <use
           transform="rotate(-19.216698,72.697685,67.360489)"
           height="100%"
           width="100%"
           y="0"
           x="0"
           xlink:href="#path4756"
           inkscape:spray-origin="#path4756"
           id="use4810" />
        <use
           transform="rotate(-19.216698,72.744229,67.295386)"
           height="100%"
           width="100%"
           y="0"
           x="0"
           xlink:href="#path4756"
           inkscape:spray-origin="#path4756"
           id="use4812" />
        <use
           transform="rotate(-19.216698,72.759307,67.369761)"
           height="100%"
           width="100%"
           y="0"
           x="0"
           xlink:href="#path4756"
           inkscape:spray-origin="#path4756"
           id="use4814" />
        <use
           transform="rotate(-19.216698,72.69555,67.256384)"
           height="100%"
           width="100%"
           y="0"
           x="0"
           xlink:href="#path4756"
           inkscape:spray-origin="#path4756"
           id="use4816" />
        <use
           transform="rotate(-19.216698,72.720333,67.261089)"
           height="100%"
           width="100%"
           y="0"
           x="0"
           xlink:href="#path4756"
           inkscape:spray-origin="#path4756"
           id="use4818" />
        <use
           transform="rotate(-19.216698,72.855218,67.305212)"
           height="100%"
           width="100%"
           y="0"
           x="0"
           xlink:href="#path4756"
           inkscape:spray-origin="#path4756"
           id="use4820" />
        <use
           transform="rotate(-19.216698,72.720426,67.324972)"
           height="100%"
           width="100%"
           y="0"
           x="0"
           xlink:href="#path4756"
           inkscape:spray-origin="#path4756"
           id="use4822" />
        <use
           transform="rotate(-19.216698,72.737641,67.363741)"
           height="100%"
           width="100%"
           y="0"
           x="0"
           xlink:href="#path4756"
           inkscape:spray-origin="#path4756"
           id="use4824" />
        <use
           transform="rotate(-19.216698,72.72259,67.391062)"
           height="100%"
           width="100%"
           y="0"
           x="0"
           xlink:href="#path4756"
           inkscape:spray-origin="#path4756"
           id="use4826" />
        <use
           transform="rotate(-19.216698,72.700724,67.307496)"
           height="100%"
           width="100%"
           y="0"
           x="0"
           xlink:href="#path4756"
           inkscape:spray-origin="#path4756"
           id="use4828" />
        <use
           transform="rotate(-19.216698,72.73818,67.324707)"
           height="100%"
           width="100%"
           y="0"
           x="0"
           xlink:href="#path4756"
           inkscape:spray-origin="#path4756"
           id="use4830" />
        <use
           transform="rotate(-19.216698,72.736642,67.40768)"
           height="100%"
           width="100%"
           y="0"
           x="0"
           xlink:href="#path4756"
           inkscape:spray-origin="#path4756"
           id="use4832" />
        <use
           transform="rotate(-19.216698,72.777716,67.301522)"
           height="100%"
           width="100%"
           y="0"
           x="0"
           xlink:href="#path4756"
           inkscape:spray-origin="#path4756"
           id="use4834" />
        <use
           transform="rotate(-19.216698,72.656546,67.243282)"
           height="100%"
           width="100%"
           y="0"
           x="0"
           xlink:href="#path4756"
           inkscape:spray-origin="#path4756"
           id="use4836" />
        <use
           transform="rotate(-19.216698,72.614927,67.407602)"
           height="100%"
           width="100%"
           y="0"
           x="0"
           xlink:href="#path4756"
           inkscape:spray-origin="#path4756"
           id="use4838" />
        <use
           transform="rotate(-19.216698,72.641853,67.413554)"
           height="100%"
           width="100%"
           y="0"
           x="0"
           xlink:href="#path4756"
           inkscape:spray-origin="#path4756"
           id="use4840" />
        <use
           transform="rotate(-19.216698,72.664518,67.399426)"
           height="100%"
           width="100%"
           y="0"
           x="0"
           xlink:href="#path4756"
           inkscape:spray-origin="#path4756"
           id="use4842" />
        <use
           transform="rotate(-19.216698,72.660627,67.449528)"
           height="100%"
           width="100%"
           y="0"
           x="0"
           xlink:href="#path4756"
           inkscape:spray-origin="#path4756"
           id="use4844" />
        <use
           transform="rotate(-19.216698,72.640169,67.335563)"
           height="100%"
           width="100%"
           y="0"
           x="0"
           xlink:href="#path4756"
           inkscape:spray-origin="#path4756"
           id="use4846" />
        <use
           transform="rotate(-19.216698,72.662303,67.263885)"
           height="100%"
           width="100%"
           y="0"
           x="0"
           xlink:href="#path4756"
           inkscape:spray-origin="#path4756"
           id="use4848" />
        <use
           transform="rotate(-19.216698,72.647421,67.412003)"
           height="100%"
           width="100%"
           y="0"
           x="0"
           xlink:href="#path4756"
           inkscape:spray-origin="#path4756"
           id="use4850" />
        <use
           transform="rotate(-19.216698,72.587566,67.371454)"
           height="100%"
           width="100%"
           y="0"
           x="0"
           xlink:href="#path4756"
           inkscape:spray-origin="#path4756"
           id="use4852" />
        <use
           transform="rotate(-19.216698,72.660384,67.3615)"
           height="100%"
           width="100%"
           y="0"
           x="0"
           xlink:href="#path4756"
           inkscape:spray-origin="#path4756"
           id="use4854" />
        <use
           transform="rotate(-19.216698,72.65326,67.441002)"
           height="100%"
           width="100%"
           y="0"
           x="0"
           xlink:href="#path4756"
           inkscape:spray-origin="#path4756"
           id="use4856" />
        <use
           transform="rotate(-19.216698,72.593746,67.297149)"
           height="100%"
           width="100%"
           y="0"
           x="0"
           xlink:href="#path4756"
           inkscape:spray-origin="#path4756"
           id="use4858" />
        <use
           transform="rotate(-19.216698,72.624351,67.433322)"
           height="100%"
           width="100%"
           y="0"
           x="0"
           xlink:href="#path4756"
           inkscape:spray-origin="#path4756"
           id="use4860" />
        <use
           transform="rotate(-19.216698,72.750458,67.327635)"
           height="100%"
           width="100%"
           y="0"
           x="0"
           xlink:href="#path4756"
           inkscape:spray-origin="#path4756"
           id="use4862" />
        <use
           transform="rotate(-19.216698,72.781007,67.31831)"
           height="100%"
           width="100%"
           y="0"
           x="0"
           xlink:href="#path4756"
           inkscape:spray-origin="#path4756"
           id="use4864" />
        <use
           transform="rotate(-19.216698,72.721305,67.370354)"
           height="100%"
           width="100%"
           y="0"
           x="0"
           xlink:href="#path4756"
           inkscape:spray-origin="#path4756"
           id="use4866" />
        <use
           transform="rotate(-19.216698,72.775719,67.416312)"
           height="100%"
           width="100%"
           y="0"
           x="0"
           xlink:href="#path4756"
           inkscape:spray-origin="#path4756"
           id="use4868" />
        <use
           transform="rotate(-19.216698,72.749138,67.342127)"
           height="100%"
           width="100%"
           y="0"
           x="0"
           xlink:href="#path4756"
           inkscape:spray-origin="#path4756"
           id="use4870" />
        <use
           transform="rotate(-19.216698,72.65013,67.375063)"
           height="100%"
           width="100%"
           y="0"
           x="0"
           xlink:href="#path4756"
           inkscape:spray-origin="#path4756"
           id="use4872" />
        <use
           transform="rotate(-19.216698,72.624053,67.35825)"
           height="100%"
           width="100%"
           y="0"
           x="0"
           xlink:href="#path4756"
           inkscape:spray-origin="#path4756"
           id="use4874" />
        <use
           transform="rotate(-19.216698,72.651843,67.275436)"
           height="100%"
           width="100%"
           y="0"
           x="0"
           xlink:href="#path4756"
           inkscape:spray-origin="#path4756"
           id="use4876" />
        <use
           transform="rotate(-19.216698,72.628547,67.373728)"
           height="100%"
           width="100%"
           y="0"
           x="0"
           xlink:href="#path4756"
           inkscape:spray-origin="#path4756"
           id="use4878" />
        <use
           transform="rotate(-19.216698,72.55878,67.296996)"
           height="100%"
           width="100%"
           y="0"
           x="0"
           xlink:href="#path4756"
           inkscape:spray-origin="#path4756"
           id="use4880" />
        <use
           transform="rotate(-19.216698,72.605403,67.30004)"
           height="100%"
           width="100%"
           y="0"
           x="0"
           xlink:href="#path4756"
           inkscape:spray-origin="#path4756"
           id="use4882" />
        <use
           transform="rotate(-19.216698,72.542023,67.395981)"
           height="100%"
           width="100%"
           y="0"
           x="0"
           xlink:href="#path4756"
           inkscape:spray-origin="#path4756"
           id="use4884" />
        <use
           transform="rotate(-19.216698,72.622575,67.403734)"
           height="100%"
           width="100%"
           y="0"
           x="0"
           xlink:href="#path4756"
           inkscape:spray-origin="#path4756"
           id="use4886" />
        <use
           transform="rotate(-19.216698,72.581454,67.333717)"
           height="100%"
           width="100%"
           y="0"
           x="0"
           xlink:href="#path4756"
           inkscape:spray-origin="#path4756"
           id="use4888" />
        <use
           transform="rotate(-19.216698,72.491395,67.361512)"
           height="100%"
           width="100%"
           y="0"
           x="0"
           xlink:href="#path4756"
           inkscape:spray-origin="#path4756"
           id="use4890" />
        <use
           transform="rotate(-19.216698,72.62286,67.470286)"
           height="100%"
           width="100%"
           y="0"
           x="0"
           xlink:href="#path4756"
           inkscape:spray-origin="#path4756"
           id="use4892" />
        <use
           transform="rotate(-19.216698,72.645052,67.482837)"
           height="100%"
           width="100%"
           y="0"
           x="0"
           xlink:href="#path4756"
           inkscape:spray-origin="#path4756"
           id="use4894" />
        <use
           transform="rotate(-19.216698,72.73771,67.43086)"
           height="100%"
           width="100%"
           y="0"
           x="0"
           xlink:href="#path4756"
           inkscape:spray-origin="#path4756"
           id="use4896" />
        <use
           transform="rotate(-19.216698,72.813715,67.515854)"
           height="100%"
           width="100%"
           y="0"
           x="0"
           xlink:href="#path4756"
           inkscape:spray-origin="#path4756"
           id="use4898" />
        <use
           transform="rotate(-19.216698,72.796657,67.383087)"
           height="100%"
           width="100%"
           y="0"
           x="0"
           xlink:href="#path4756"
           inkscape:spray-origin="#path4756"
           id="use4900" />
        <use
           transform="rotate(-19.216698,72.927949,67.459317)"
           height="100%"
           width="100%"
           y="0"
           x="0"
           xlink:href="#path4756"
           inkscape:spray-origin="#path4756"
           id="use4902" />
        <use
           transform="rotate(-19.216698,72.960841,67.460037)"
           height="100%"
           width="100%"
           y="0"
           x="0"
           xlink:href="#path4756"
           inkscape:spray-origin="#path4756"
           id="use4904" />
        <use
           transform="rotate(-19.216698,72.799697,67.449512)"
           height="100%"
           width="100%"
           y="0"
           x="0"
           xlink:href="#path4756"
           inkscape:spray-origin="#path4756"
           id="use4906" />
        <use
           transform="rotate(-19.216698,72.892476,67.415289)"
           height="100%"
           width="100%"
           y="0"
           x="0"
           xlink:href="#path4756"
           inkscape:spray-origin="#path4756"
           id="use4908" />
        <use
           transform="rotate(-19.216698,72.832809,67.431321)"
           height="100%"
           width="100%"
           y="0"
           x="0"
           xlink:href="#path4756"
           inkscape:spray-origin="#path4756"
           id="use4910" />
        <use
           transform="rotate(-19.216698,72.811348,67.42181)"
           height="100%"
           width="100%"
           y="0"
           x="0"
           xlink:href="#path4756"
           inkscape:spray-origin="#path4756"
           id="use4912" />
        <use
           transform="rotate(-19.216698,72.750182,67.529177)"
           height="100%"
           width="100%"
           y="0"
           x="0"
           xlink:href="#path4756"
           inkscape:spray-origin="#path4756"
           id="use4914" />
        <use
           transform="rotate(-19.216698,72.779329,67.422959)"
           height="100%"
           width="100%"
           y="0"
           x="0"
           xlink:href="#path4756"
           inkscape:spray-origin="#path4756"
           id="use4916" />
        <rect
           style="opacity:1;fill:#ffcc00;fill-opacity:1;stroke:none;stroke-width:0.81061399;stroke-miterlimit:4;stroke-dasharray:none;stroke-dashoffset:0;stroke-opacity:1"
           id="rect5544"
           width="4.9953871"
           height="49.369732"
           x="52.52869"
           y="79.222542"
           transform="matrix(0.93470568,-0.3554227,0.31647448,0.94860102,0,0)" />
      </g>
    </g>
  </g>
</svg>
